<?xml version="1.0" encoding="utf-8"?>
<svg viewBox="0 0 500 500" xmlns="http://www.w3.org/2000/svg" xmlns:xlink="http://www.w3.org/1999/xlink">
  <linearGradient id="SVGID_1_" gradientUnits="userSpaceOnUse" x1="14.57" x2="123.95" y1="262.285" y2="262.285" xlink:href="#lg1"/>
  <linearGradient id="lg1">
    <stop offset="0" stop-color="#fef056"/>
    <stop offset="0.5213" stop-color="#fbc56d"/>
    <stop offset="1" stop-color="#c86d36"/>
  </linearGradient>
  <linearGradient id="SVGID_2_" gradientUnits="userSpaceOnUse" x1="25.333" x2="94.631" y1="315.67" y2="315.67" xlink:href="#lg1"/>
  <linearGradient id="SVGID_3_" gradientUnits="userSpaceOnUse" x1="-38" x2="128.863" y1="88.635" y2="88.635" xlink:href="#lg1"/>
  <linearGradient id="SVGID_4_" gradientUnits="userSpaceOnUse" x1="41" x2="97.593" y1="211.057" y2="211.057" xlink:href="#lg1"/>
  <linearGradient id="SVGID_5_" gradientUnits="userSpaceOnUse" x1="21.333" x2="91.029" y1="232.501" y2="232.501" xlink:href="#lg1"/>
  <linearGradient id="SVGID_6_" gradientUnits="userSpaceOnUse" x1="41" x2="97.593" y1="253.945" y2="253.945" xlink:href="#lg1"/>
  <linearGradient id="SVGID_7_" gradientUnits="userSpaceOnUse" x1="21.333" x2="91.029" y1="275.389" y2="275.389" xlink:href="#lg1"/>
  <linearGradient id="SVGID_8_" gradientUnits="userSpaceOnUse" x1="41" x2="97.593" y1="296.833" y2="296.833" xlink:href="#lg1"/>
  <linearGradient id="SVGID_22_" gradientUnits="userSpaceOnUse" x1="4.506" x2="181.544" y1="69.257" y2="69.257" xlink:href="#lg2"/>
  <linearGradient id="lg2">
    <stop offset="0" style="stop-color: rgb(162, 118, 255);"/>
    <stop offset="0.566" style="stop-color: rgb(124, 34, 172);"/>
    <stop offset="0.5857" style="stop-color: rgb(123, 31, 169);"/>
    <stop offset="1" style="stop-color: rgb(118, 2, 144);"/>
  </linearGradient>
  <linearGradient id="SVGID_24_" gradientUnits="userSpaceOnUse" x1="-35.75" x2="160.174" y1="69.257" y2="69.257" xlink:href="#lg2"/>
  <linearGradient id="SVGID_25_" gradientUnits="userSpaceOnUse" x1="38.25" x2="102.809" y1="69.257" y2="69.257" xlink:href="#lg2"/>
  <g transform="matrix(0.958437, 0, 0, 0.958437, 155.805328, 2.481296)" style="">
    <path d="m69.26 14.57c-30.16 0-54.69 24.53-54.69 54.69 0 15.24 6.13 43.95 14.25 66.77 6.71 18.85 14.03 32.39 21.89 40.52 7.22 7.48 11.05 17.6 11.05 27.99v297.96c0 4.142 3.358 7.5 7.5 7.5 4.142 0 7.5-3.358 7.5-7.5v-297.96c0-10.39 3.82-20.51 11.04-27.99 7.86-8.13 15.18-21.67 21.89-40.52 8.13-22.82 14.26-51.53 14.26-66.77 0-30.16-24.54-54.69-54.69-54.69zm26.3 116.43c-10.44 29.33-20.69 39.73-26.3 39.73s-15.87-10.4-26.31-39.73c-8.38-23.53-13.38-49.87-13.38-61.74 0-21.89 17.8-39.69 39.69-39.69 21.88 0 39.69 17.8 39.69 39.69 0 11.87-5.01 38.21-13.39 61.74z" fill="url(#SVGID_1_)"/>
    <path d="m76.76 318.777v-21.213l-15 15v21.213z" fill="url(#SVGID_2_)"/>
    <path d="m118.6 45.68c-8.82-18.39-27.63-31.11-49.34-31.11-21.72 0-40.52 12.72-49.34 31.11-3.43 7.14-5.35 15.14-5.35 23.58 0 15.24 6.13 43.95 14.25 66.77 2.6 7.29 5.28 13.77 8.04 19.46 6.66 3.54 13.97 6.02 21.69 7.21-4.73-6.2-10.14-16.36-15.6-31.7-8.38-23.53-13.38-49.87-13.38-61.74 0-21.89 17.8-39.69 39.69-39.69 21.88 0 39.69 17.8 39.69 39.69 0 11.87-5.01 38.21-13.39 61.74-5.46 15.34-10.87 25.5-15.59 31.7 7.72-1.19 15.02-3.66 21.67-7.2 2.77-5.69 5.46-12.18 8.05-19.47 8.13-22.82 14.26-51.53 14.26-66.77 0-8.44-1.92-16.44-5.35-23.58z" fill="url(#SVGID_3_)"/>
    <g>
      <path d="m89.724 190.591c-2.93-2.929-7.678-2.929-10.607 0l-30.325 30.325c-2.929 2.929-2.929 7.678 0 10.606 1.465 1.464 3.385 2.197 5.304 2.197s3.839-.732 5.304-2.197l30.325-30.325c2.927-2.928 2.927-7.677-.001-10.606z" fill="url(#SVGID_4_)"/>
      <path d="m89.724 212.035c-2.929-2.929-7.677-2.929-10.607 0l-30.326 30.325c-2.929 2.929-2.929 7.678 0 10.606 1.465 1.465 3.384 2.197 5.304 2.197 1.919 0 3.839-.732 5.304-2.197l30.325-30.325c2.928-2.928 2.928-7.677 0-10.606z" fill="url(#SVGID_5_)"/>
      <path d="m89.724 233.479c-2.93-2.929-7.678-2.929-10.607 0l-30.325 30.325c-2.929 2.929-2.929 7.678 0 10.606 1.465 1.464 3.385 2.197 5.304 2.197s3.839-.732 5.304-2.197l30.325-30.325c2.927-2.928 2.927-7.677-.001-10.606z" fill="url(#SVGID_6_)"/>
      <path d="m89.724 254.923c-2.929-2.929-7.677-2.93-10.607 0l-30.325 30.325c-2.929 2.929-2.929 7.678 0 10.606 1.465 1.465 3.384 2.197 5.304 2.197 1.919 0 3.839-.732 5.304-2.197l30.325-30.325c2.927-2.928 2.927-7.677-.001-10.606z" fill="url(#SVGID_7_)"/>
      <path d="m89.724 276.367c-2.93-2.929-7.678-2.929-10.607 0l-30.325 30.325c-2.929 2.929-2.929 7.678 0 10.606 1.465 1.464 3.385 2.197 5.304 2.197s3.839-.732 5.304-2.197l30.325-30.325c2.927-2.928 2.927-7.677-.001-10.606z" fill="url(#SVGID_8_)"/>
    </g>
    <g>
      <path d="m69.257 0c-38.25 0-69.257 31.007-69.257 69.257 0 38.249 31.007 69.257 69.257 69.257s69.257-31.008 69.257-69.257c0-38.25-31.007-69.257-69.257-69.257zm0 99.252c-16.566 0-29.995-13.429-29.995-29.995s13.429-29.995 29.995-29.995 29.995 13.429 29.995 29.995-13.429 29.995-29.995 29.995z" fill="url(#SVGID_22_)" style="filter: none;"/>
      <path d="m69.257 0c-4.272 0-8.447.407-12.505 1.148 32.277 5.89 56.751 34.132 56.751 68.109s-24.474 62.219-56.751 68.109c4.058.741 8.233 1.148 12.505 1.148 38.25 0 69.257-31.008 69.257-69.257 0-38.25-31.007-69.257-69.257-69.257z" fill="url(#SVGID_24_)"/>
      <path d="m113.503 69.257c0 12.27-3.205 23.783-8.803 33.774 8.376-8.788 13.529-20.675 13.529-33.774s-5.153-24.987-13.529-33.774c5.598 9.991 8.803 21.504 8.803 33.774z" fill="url(#SVGID_25_)"/>
    </g>
    <g/>
    <g/>
  </g>
</svg>